# xmcd
#
# Track frame offsets:
#	150
#	11622
#	28947
#	40905
#	50485
#	61717
#	75617
#	86747
#	99280
#	114337
#
# Disc length: 1663 seconds
#
# Revision: 0
# Processed by: cddbd v1.5.1PL0 Copyright (c) Steve Scherf et al.
# Submitted via: dBpowerAMP V4.0
#
DISCID=71067d0a
DTITLE=Charlie McCoy - Charlie McCoy's 13th
DYEAR=1900
DGENRE=Blues
TTITLE0=Harmonica Jones
TTITLE1=You Were Always On My Mind
TTITLE2=You Can't Get Off With Your Shoes On
TTITLE3=Shenandoah
TTITLE4=Orange Blossum Special
TTITLE5=Take the New River
TTITLE6=I'm So Lonesome I Could Cry
TTITLE7=One O'clock Jump
TTITLE8=Funky Country Living
TTITLE9=I Started Loving You Again
EXTD=
EXTT0=
EXTT1=
EXTT2=
EXTT3=
EXTT4=
EXTT5=
EXTT6=
EXTT7=
EXTT8=
EXTT9=
PLAYORDER=
